<svg width="128" height="128" viewBox="0 0 128 128" fill="none" xmlns="http://www.w3.org/2000/svg">
<path d="M60.2699 2.44087C47.0177 3.48026 34.7114 8.77072 24.671 17.7198C17.0938 24.4758 11.1486 33.3106 7.62505 43.0185C6.014 47.4566 5.02658 51.6557 4.36138 56.8942C3.75853 61.6546 3.73775 67.4128 4.30941 71.9134C5.28643 79.6048 7.35481 86.3712 10.6912 92.8258C13.5184 98.3033 16.9899 103.022 21.3969 107.408C29.7328 115.713 40.0123 121.534 50.8219 124.08C55.5615 125.203 59.2929 125.629 64.3235 125.629C69.8114 125.639 73.8339 125.109 79.0828 123.706C88.1774 121.284 96.7627 116.597 103.82 110.225C107.115 107.242 109.558 104.571 112.125 101.13C117.166 94.3641 120.658 86.7869 122.675 78.2536C123.329 75.4681 123.704 73.1814 124.047 69.8346C124.317 67.2985 124.317 60.9998 124.057 58.4533C123.205 50.1175 121.219 43.2471 117.519 35.8467C110.483 21.7838 98.0307 10.7767 83.3027 5.6006C78.8229 4.03113 74.8109 3.12686 69.8842 2.57599C68.1484 2.3889 62.0576 2.29536 60.2699 2.44087ZM69.0527 5.70454C76.027 6.35935 82.1905 8.11591 88.6971 11.3172C94.5488 14.1963 99.7146 17.9381 104.288 22.6049C106.377 24.7357 107.479 26.0037 108.996 28.0201C111.376 31.1903 113.06 33.8823 114.786 37.3018C117.717 43.0912 119.504 48.548 120.492 54.6596C122.196 65.2197 121.095 75.5824 117.197 85.6332C112.832 96.9209 105.171 106.421 94.8814 113.302C90.7966 116.035 85.371 118.634 80.5899 120.151C70.9652 123.217 60.7896 123.519 50.9674 121.024C38.4428 117.844 26.8017 110.142 18.6321 99.613C16.2935 96.5987 13.7782 92.41 12.1983 88.9073C11.8761 88.1901 11.5747 87.5145 11.5227 87.4002C10.2547 84.6146 8.64364 79.241 7.94726 75.4992C7.12614 71.0715 6.91826 68.421 6.98063 63.7022C7.05338 58.8275 7.34441 56.3226 8.36301 51.6557C9.5583 46.2094 11.502 40.9085 13.9757 36.3872C17.1146 30.6394 20.1912 26.4818 24.5047 22.1684C27.5708 19.1126 30.2109 16.9507 33.7032 14.6432C41.8104 9.30081 51.4455 6.12029 61.2573 5.54863C63.1906 5.4343 66.9947 5.50706 69.0527 5.70454Z" fill="#060213"/>
<path d="M63.097 14.4893C62.068 14.7595 61.4028 15.1441 60.5609 15.934C59.3864 17.0358 58.8355 18.2311 58.742 19.9149C58.638 21.7234 59.1785 23.1785 60.4154 24.4258C61.0702 25.0702 62.2343 25.7458 62.9307 25.8809L63.2841 25.9433V42.5631C63.2841 51.7097 63.2633 59.1828 63.2425 59.1828C63.2009 59.1828 62.3902 57.7693 61.5483 56.2206C61.2053 55.5866 60.6544 54.5991 60.3322 54.0067C58.8979 51.3874 58.5237 50.7015 57.5675 48.9449C55.9356 45.9203 52.5056 39.6632 51.1233 37.1998C50.4165 35.9422 49.2939 33.9154 48.6184 32.6889L47.3815 30.4542L47.9427 29.8722C48.9717 28.8016 49.5018 27.4088 49.5018 25.8186C49.4914 24.2283 49.0029 22.9083 48.0155 21.8377C47.2568 21.0166 46.4564 20.5073 45.4586 20.2163C44.783 20.0084 44.492 19.9876 43.5565 20.0188C42.2261 20.0708 41.5194 20.2994 40.4904 20.9958C39.6277 21.5883 39.0664 22.2223 38.5987 23.137C37.4138 25.4964 37.8503 28.2819 39.6796 30.0801C40.9061 31.2857 42.3301 31.8158 44.0555 31.7119C44.6063 31.6807 45.1156 31.6287 45.1988 31.5976C45.3131 31.556 45.469 31.7535 45.7393 32.2836C45.9575 32.6993 46.6747 34.0193 47.3399 35.225C48.0051 36.4203 49.1692 38.5303 49.928 39.9022C50.6867 41.2742 51.9548 43.5609 52.7343 44.9952C53.5242 46.4192 54.5948 48.3628 55.1249 49.3087C55.655 50.2545 56.5592 51.8863 57.1309 52.9465C58.1599 54.8694 60.7999 59.6194 61.3508 60.5548C61.5067 60.8354 61.6107 61.0537 61.5795 61.0537C61.4548 61.0537 51.5286 54.7966 43.6917 49.7764C41.9767 48.6747 38.9833 46.783 37.0396 45.5669C35.096 44.3508 33.4018 43.2906 33.2874 43.2075L33.0588 43.062L33.2562 42.4383C33.5369 41.5341 33.5265 39.8607 33.2355 38.9876C32.8925 37.9586 32.4247 37.1894 31.7595 36.5242C30.5746 35.3601 29.0675 34.7989 27.3733 34.8924C25.5232 34.9963 24.0369 35.8382 22.9455 37.3869C20.7213 40.5571 22.1036 44.9433 25.7415 46.2633C27.5292 46.9181 29.6808 46.5855 31.1983 45.4214C31.4789 45.2031 31.7699 45.0576 31.8427 45.0888C31.9986 45.1407 33.9526 46.3672 39.1184 49.6621C41.0101 50.8574 43.7436 52.6035 45.2092 53.5286C46.6747 54.4536 48.8574 55.8464 50.0423 56.6052C51.2376 57.3743 52.8486 58.3929 53.6178 58.871C54.3869 59.3491 55.6966 60.1702 56.5281 60.6899C57.3596 61.2096 58.5133 61.9372 59.1057 62.301C59.6878 62.6648 60.1555 62.9662 60.1451 62.9766C60.1243 62.987 52.7031 63.0389 43.6397 63.0701L27.1654 63.1429L26.9888 62.3945C26.6562 60.9914 25.4505 59.4531 24.1304 58.7359C23.4445 58.3721 22.1556 58.0395 21.3969 58.0395C20.6381 58.0395 19.3493 58.3721 18.6633 58.7359C17.9045 59.1516 16.9379 60.0871 16.4806 60.8562C15.8777 61.8748 15.6387 62.7791 15.6387 64.016C15.6387 65.7621 16.096 66.8951 17.2809 68.08C18.1228 68.9219 19.1414 69.4727 20.2328 69.691C21.137 69.8573 22.5402 69.7638 23.3197 69.4727C24.1616 69.1609 25.2426 68.423 25.7623 67.8305C26.178 67.3524 27.0095 65.8453 27.0095 65.5647C27.0095 65.388 27.841 65.3776 47.6205 65.336L63.2841 65.3048V89.9382V114.582H64.4274H65.5707V89.9694V65.3464L69.801 65.284C72.1188 65.2424 80.3196 65.2113 88.0214 65.2113H102.012L102.178 65.7621C102.604 67.1341 103.685 68.4334 104.943 69.0778C105.93 69.5975 106.533 69.7326 107.718 69.7326C108.861 69.7326 109.672 69.5143 110.628 68.9634C112.416 67.9344 113.486 66.0428 113.486 63.9328C113.486 62.1659 112.915 60.7939 111.688 59.6402C110.441 58.4553 109.412 58.0395 107.718 58.0395C106.024 58.0395 104.922 58.4968 103.706 59.7025C102.874 60.5236 102.417 61.272 102.105 62.3218L101.939 62.9038L96.4093 62.9662C93.3639 63.0078 85.953 63.0286 79.935 63.0078L69.0007 62.9766L70.1128 62.2906C70.7365 61.9164 72.0981 61.0745 73.1582 60.4301C77.3469 57.8732 88.3228 50.8989 94.6631 46.7622L97.4071 44.9744L98.197 45.5045C99.2156 46.2009 99.8808 46.4192 101.159 46.4815C102.968 46.5647 104.288 46.0866 105.493 44.9121C106.762 43.6856 107.292 42.3864 107.281 40.5778C107.281 39.6528 107.229 39.3722 106.99 38.7069C106.616 37.6987 106.179 37.0231 105.41 36.306C104.672 35.5992 103.83 35.1523 102.812 34.9236C101.824 34.7053 101.118 34.7157 100.141 34.9652C99.0077 35.2562 98.3841 35.62 97.4694 36.5242C96.586 37.4077 96.0039 38.4471 95.8064 39.4969C95.6609 40.266 95.7441 41.9394 95.9623 42.5423C96.0975 42.9165 96.1078 43.0308 96.0039 43.1347C95.9311 43.1971 95.0061 43.8103 93.9459 44.4859C92.8857 45.1615 90.9005 46.4296 89.5285 47.3234C85.0488 50.2129 77.6899 54.8798 74.8212 56.6571C74.2184 57.0313 73.4493 57.5198 73.1063 57.7277C71.5784 58.6839 67.5455 61.1577 67.504 61.1577C67.4832 61.1577 68.429 59.4115 69.6139 57.2808C70.7988 55.1604 72.3163 52.406 73.0023 51.1796C73.6779 49.9531 74.6342 48.2381 75.1123 47.3858C76.7233 44.5171 78.3032 41.6588 79.0827 40.2141C79.7791 38.9252 83.7703 31.6287 83.8223 31.556C83.8327 31.5352 84.2173 31.5768 84.6746 31.6391C86.057 31.847 87.4082 31.556 88.6139 30.7868C91.1708 29.1654 92.0335 25.7042 90.5575 22.9083C90.1418 22.1184 89.2583 21.1621 88.5619 20.7464C86.452 19.5199 83.8015 19.6862 81.8891 21.1829C80.4859 22.2743 79.6128 24.3219 79.7479 26.2135C79.8623 27.7103 80.3508 28.8432 81.3382 29.8826C81.65 30.2152 81.8475 30.4958 81.7955 30.5582C81.6916 30.6621 80.912 32.0757 76.7649 39.5385C72.1188 47.9263 70.8196 50.2753 68.6369 54.2458C67.504 56.3037 66.3606 58.3617 66.1008 58.819L65.6227 59.6506L65.5915 42.8749C65.5811 33.6451 65.6019 26.0576 65.6435 26.0161C65.6954 25.9849 66.028 25.8498 66.4022 25.725C69.8946 24.5921 71.3809 20.3722 69.4476 17.0981C68.9591 16.2666 67.9613 15.3416 67.0986 14.9258C65.789 14.2814 64.4586 14.1359 63.097 14.4893Z" fill="#060213"/>
</svg>
