<svg width="128" height="128" viewBox="0 0 128 128" fill="none" xmlns="http://www.w3.org/2000/svg">
<path d="M53.4635 13.819C44.677 15.8187 37.769 19.2727 30.9215 25.1506C23.1045 31.8163 16.9842 41.6935 14.318 51.995C12.5607 58.7818 12.5607 69.5075 14.318 76.2337C18.6204 92.5343 30.3155 105.623 45.7677 111.441C50.0095 113.077 57.4629 114.713 60.4928 114.713H62.2501L62.1289 93.928L61.9471 73.2039L49.1006 73.0221C40.92 72.9615 36.1934 73.0827 36.1934 73.4463C36.1934 74.7188 33.4666 76.5367 31.5881 76.5367C29.043 76.5367 27.1645 74.9006 26.7403 72.2343C26.2556 69.2045 28.437 66.5988 31.5275 66.5988C33.7696 66.5988 36.1934 68.1744 36.1934 69.6893C36.1934 70.2952 38.4355 70.477 47.5857 70.477H58.9173L48.9188 64.5385C39.9504 59.1454 38.7991 58.6607 37.7084 59.3878C36.1328 60.418 34.3149 60.3574 32.6788 59.206C28.5582 56.358 30.8609 49.8741 35.9511 49.8741C37.5266 49.8741 40.4352 53.2675 40.4352 55.146C40.4958 56.7216 41.2836 57.3275 49.9489 62.4177C55.2209 65.5081 59.5838 67.932 59.6444 67.8108C59.7656 67.6896 57.16 62.963 53.9483 57.3275C48.3734 47.632 47.9492 47.0261 46.1919 46.9655C42.1925 46.8443 40.2534 41.5117 43.1621 38.6637C45.3436 36.4216 48.3734 36.6034 50.3731 39.0273C52.191 41.1482 52.3122 41.9965 51.1003 44.2992C50.2519 45.8747 50.4337 46.3595 56.0692 56.1762L61.9471 66.4171L62.1289 54.0553L62.2501 41.7541L60.4322 40.2998C59.0385 39.2091 58.6143 38.4213 58.6143 36.7852C58.6143 33.9371 59.402 32.604 61.6441 31.6951C63.0984 31.0891 63.8256 31.0891 65.2799 31.6951C68.8551 33.21 69.4611 37.3912 66.4919 40.1786L64.674 41.8753L64.7952 54.0553L64.9769 66.2353L70.7942 56.1156C76.3692 46.4201 76.5509 45.9353 75.7632 44.3598C73.3393 39.4515 79.9444 34.7855 83.762 38.6637C86.7312 41.5723 84.7315 46.8443 80.6715 46.9655C78.9748 47.0261 78.5506 47.5108 75.8844 52.2374C74.2483 55.0854 71.582 59.7514 70.0065 62.5389C68.3704 65.3263 67.1584 67.6896 67.219 67.8108C67.3402 67.8714 71.7032 65.4475 76.9145 62.4177C85.7011 57.3275 86.4888 56.7216 86.4888 55.146C86.4888 52.9646 89.4581 49.8741 91.579 49.8741C94.0028 49.8741 96.4267 52.3586 96.4267 54.9036C96.4267 58.6607 92.9727 60.9633 89.4581 59.5696C87.8826 58.903 87.1554 59.206 79.702 63.569C75.2784 66.1141 70.8548 68.7197 69.8247 69.3257C68.0068 70.477 68.0674 70.477 79.096 70.477H90.1246L91.8819 68.5379C95.033 65.0233 100.426 66.9018 100.426 71.5072C100.426 76.1731 95.2754 78.1122 91.8214 74.7188L90.0034 72.9009H77.3387H64.674V93.8674V114.895L69.0369 114.41C80.308 113.319 91.8819 107.623 99.8807 99.1999C114.848 83.3236 118.181 61.4481 108.607 41.5723C101.638 27.2109 88.7915 16.97 73.6423 13.819C68.4916 12.7282 58.3719 12.7282 53.4635 13.819Z" fill="#010101"/>
</svg>
