<svg width="128" height="128" viewBox="0 0 128 128" fill="none" xmlns="http://www.w3.org/2000/svg">
<path d="M51.7746 12.2484C43.4253 14.4452 36.6141 18.3996 30.3156 24.6972C25.1889 29.8232 18.8171 38.6106 21.0143 37.6586C29.217 34.0704 32.0001 33.2649 36.6141 33.0452C41.5944 32.8256 41.7409 32.7523 42.4 30.5555C42.7662 29.3838 43.5718 28.3586 44.1577 28.3586C45.6225 28.3586 51.6281 31.8736 51.6281 32.7523C51.6281 33.1185 53.1661 33.6311 55.1436 33.8508C61.2224 34.7295 64.0055 35.6815 66.4956 37.8051C67.7406 38.9767 71.2561 41.1004 74.1857 42.5649C77.1152 44.0295 79.6786 45.7137 79.8983 46.2996C80.5574 47.9106 78.6532 52.6704 77.2617 53.0366C76.4561 53.2563 76.0899 53.8421 76.3096 54.7208C76.5293 55.4531 76.3096 56.698 75.7969 57.5767C75.1378 58.8948 74.7716 58.9681 73.5265 58.309C71.0364 56.9909 66.0562 57.1374 63.7857 58.6019C56.1689 63.6547 51.0422 85.3303 54.4112 98.6578C54.7041 100.049 55.0703 99.0972 55.8027 94.9964C57.0478 87.6736 61.0027 79.8382 65.8364 75.0051C67.8871 72.8815 74.1124 68.1216 79.5321 64.387C96.5968 52.8169 102.163 45.2011 102.309 33.5578C102.309 30.5555 101.943 29.3838 100.332 27.4799C95.3517 21.4019 85.9771 15.2508 77.4082 12.5413C75.504 11.8822 70.1575 11.2964 65.5435 11.0767C58.7323 10.8571 56.0957 11.0767 51.7746 12.2484Z" fill="#010101"/>
<path d="M30.1791 41.1821C21.244 44.3309 14.0666 52.6057 13.1877 60.734C12.3088 68.9356 14.5792 80.2128 18.6806 88.4143C21.3904 93.8332 27.396 101.303 32.303 105.257C37.3565 109.358 47.5367 114.484 52.224 115.216L55.3 115.729L52.7367 111.847C51.2719 109.724 49.2212 106.062 48.1226 103.719C47.024 101.376 45.486 99.1789 44.6804 98.8128C41.0185 97.1285 33.5481 90.6844 30.5453 86.6569C22.7087 76.0387 21.3172 65.86 26.2242 55.1687C28.5679 50.1891 32.0101 46.308 37.2833 42.8663L41.6044 40.0836H37.2833C34.9396 40.1569 31.7171 40.5962 30.1791 41.1821Z" fill="#010101"/>
<path d="M107.804 44.774C104.801 54.2205 97.8437 61.2504 81.7311 71.2094C66.8636 80.363 60.6383 88.2717 59.8327 98.7433C59.4665 104.528 61.0045 110.753 63.7876 113.975C66.1313 116.757 67.2298 116.904 66.2045 114.194C65.7651 113.096 65.3256 109.874 65.3256 107.091C65.2524 102.844 65.5453 101.16 67.2298 97.8646C69.9397 92.2992 76.2382 86.5142 84.2213 82.1937C99.8944 73.8457 105.534 69.452 109.489 62.6417C112.491 57.2228 113.004 52.463 111.027 45.9457C110.148 43.163 109.342 40.8197 109.269 40.8197C109.122 40.8197 108.463 42.5772 107.804 44.774Z" fill="#010101"/>
<path d="M111.107 71.27C107.738 75.8834 101.586 80.1306 90.2341 85.9157C84.8876 88.6251 79.175 91.7739 77.4173 92.9456C73.1694 95.8747 70.2399 100.122 69.1413 104.882C68.4089 108.324 68.4089 109.276 69.5075 112.205C71.0455 116.159 72.8765 116.598 72.8765 113.01C72.8765 109.349 74.0483 106.713 77.1243 103.564C80.1271 100.415 82.9102 98.8039 89.8679 96.1676C101.366 91.8472 108.764 86.2086 111.62 79.6913C112.938 76.5424 114.549 67.8283 113.817 67.9015C113.671 67.9747 112.425 69.4393 111.107 71.27Z" fill="#010101"/>
<path d="M99.6005 97.7042C97.6231 98.7294 93.302 100.56 90.0795 101.732C82.3161 104.588 79.6795 106.272 77.995 109.714C75.8711 113.741 76.0176 114.913 78.581 114.327C86.564 112.35 99.3808 103.27 102.969 96.9719C103.848 95.4341 103.995 95.3609 99.6005 97.7042Z" fill="#010101"/>
</svg>
