<svg width="128" height="128" viewBox="0 0 128 128" fill="none" xmlns="http://www.w3.org/2000/svg">
<mask id="path-1-inside-1_5039_108" fill="white">
<path d="M57.4402 3.05957C58.1896 3.4155 58.2645 3.6965 57.6088 3.6965C57.0281 3.6965 55.6044 4.9516 54.9675 6.03812C53.8248 7.98635 53.4314 10.2905 53.7686 12.9693C54.0496 15.2922 54.649 17.5589 56.2039 22.1485C59.5383 31.9834 61.3742 39.7201 62.3108 47.7191C62.8353 52.2338 62.7417 60.2702 62.1048 63.3799C62.0298 63.6984 61.805 63.792 60.3813 63.9794C59.4821 64.0918 58.7141 64.1667 58.6766 64.1105C58.6391 64.073 58.7515 62.8741 58.9389 61.4504C59.4821 57.4228 59.4447 49.5175 58.8639 45.7521C57.4215 36.498 55.0049 28.6302 51.3333 21.3055C49.5349 17.7275 48.6732 12.7633 49.2539 9.41006C49.5536 7.76155 50.5839 5.49487 51.4831 4.57695C53.2628 2.74111 55.5482 2.16039 57.4402 3.05957ZM92.8644 10.7963C93.5762 11.8641 93.595 12.501 92.9206 15.3484C92.4148 17.4653 92.3211 18.1584 92.4148 19.2074C92.6396 21.8675 93.9322 24.2092 96.4424 26.5695C98.4281 28.4054 100.47 29.7916 106.315 33.201C114.988 38.2777 117.105 39.7201 119.952 42.5863C123.493 46.183 125.141 49.3114 125.703 53.4889C126.359 58.3407 124.205 62.9116 120.083 65.4218C118.978 66.0962 118.922 66.1524 119.034 66.7144C119.671 69.8241 119.802 71.4351 119.784 76.287C119.784 80.8391 119.728 81.7008 119.259 84.8105C118.585 89.2502 118.416 93.8211 118.847 95.863C119.016 96.6685 119.521 98.0173 120.009 99.0101C121.133 101.277 121.095 101.52 119.109 104.424C116.768 107.89 112.553 114.203 111.841 115.327C111.504 115.87 111.073 116.75 110.904 117.294C110.567 118.286 110.08 118.717 109.237 118.717C108.956 118.717 108.413 119.073 107.795 119.654C105.903 121.452 102.98 122.295 99.9829 121.939C98.4843 121.752 96.9482 122.164 96.5735 122.82L96.3675 123.232L96.0115 122.839C95.8055 122.614 95.6369 122.07 95.5807 121.471C95.5245 120.666 95.5807 120.403 95.9366 119.954C96.4237 119.335 97.3416 118.905 98.1658 118.905C98.4656 118.905 98.7278 118.811 98.7278 118.717C98.7278 118.436 97.8099 118.511 96.8545 118.867C95.8991 119.242 95.1686 120.16 95.1686 120.984C95.1686 121.471 95.1123 121.527 94.5129 121.527C94.0071 121.527 93.801 121.621 93.7074 121.921C93.5575 122.295 93.5575 122.295 93.239 121.939C92.4335 121.059 92.7333 119.129 93.8572 118.062C94.1757 117.762 94.8876 117.406 95.5807 117.2C96.5923 116.919 96.6672 116.863 96.1052 116.863C95.1498 116.844 94.0633 117.406 93.1267 118.399C92.6771 118.867 92.2275 119.223 92.1151 119.148C91.8903 119.017 92.0963 117.724 92.4523 117.05C92.8831 116.188 94.1382 115.195 95.1873 114.896C96.4986 114.502 97.5102 114.521 99.8518 114.989C102.287 115.476 102.999 115.345 104.198 114.165C105.284 113.116 107.233 110.119 108.506 107.571C111.654 101.258 111.429 98.2421 107.308 91.7792C104.629 87.583 103.074 84.8292 100.751 80.2209C98.0722 74.9007 97.5664 74.1889 96.0303 73.758C94.8501 73.4396 92.8831 73.6082 91.6093 74.1514C88.893 75.3129 86.6263 76.9614 80.5006 82.2628C78.0466 84.3796 76.0047 86.1218 75.9672 86.1218C75.9297 86.1218 76.0983 85.616 76.3419 85.0166C77.1661 82.8997 77.4284 81.4573 77.4471 79.0969L77.4658 76.849L78.365 75.6501C79.6951 73.8517 80.5193 71.9596 81.3061 68.7938C81.6808 67.2389 82.1678 65.5904 82.3739 65.1221C82.8609 64.0168 83.9287 62.9303 84.6593 62.7805C85.9706 62.5182 84.5469 61.2069 82.9546 61.2069C81.8306 61.2069 81.0251 61.5254 80.0885 62.3496C79.3953 62.9678 79.3766 62.9678 79.489 62.5182C79.5452 62.2559 79.6576 61.2818 79.7325 60.3264L79.8637 58.603L82.0367 57.4041C83.2356 56.7297 84.8841 55.8118 85.7084 55.3622C89.174 53.414 92.2649 52.5522 95.6369 52.5522C99.8705 52.571 103.392 53.7886 109.518 57.4041C111.803 58.7529 113.639 59.5209 114.613 59.5209C116.206 59.5209 117.761 58.5655 118.454 57.1793C119.503 55.025 118.472 51.934 115.775 49.199C113.864 47.2695 111.86 45.8271 107.532 43.2794C96.4799 36.7416 95.2248 35.9173 92.2087 33.0324C89.2302 30.1663 87.3194 26.9817 86.6263 23.7596C86.2516 21.9425 86.2891 18.9077 86.7387 17.0531C87.1695 15.2548 88.2748 12.9319 89.2489 11.8079C89.942 11.0211 91.6655 10.0095 92.1713 10.1032C92.3211 10.1407 92.6209 10.4404 92.8644 10.7963ZM42.6224 12.2949C45.5822 13.7561 48.336 16.9595 50.6401 21.5865C54.9675 30.2599 57.74 40.3383 58.4705 50.0607C58.7703 53.9197 58.5267 58.9589 57.8711 63.2113L57.665 64.5414L56.4474 65.0472C52.5884 66.6957 49.3476 70.1987 48.0737 74.1327C47.3431 76.3619 47.1558 77.7107 47.2682 79.8088C47.4555 83.162 48.617 86.1218 50.7713 88.8194C51.4082 89.6062 51.9889 90.2431 52.0451 90.2431C52.1201 90.2618 52.4947 90.5428 52.8881 90.88L53.5812 91.4982L53.1316 92.5098C52.6258 93.615 52.195 95.8817 52.3823 96.4624C52.5884 97.1181 52.0639 98.6355 51.0148 100.396C47.4743 106.372 42.9034 115.439 42.4725 117.331C42.3039 118.024 42.0979 118.661 42.0042 118.755C41.9106 118.848 41.461 119.017 41.0114 119.111C40.4306 119.242 39.9061 119.579 39.1568 120.272C37.0774 122.258 35.7099 122.707 31.9446 122.632C30.5958 122.595 29.3969 122.632 29.2845 122.707C29.1534 122.782 28.7412 122.857 28.3666 122.876C27.8046 122.895 27.6547 122.988 27.4487 123.457L27.2239 124L26.8117 123.494C26.231 122.726 26.2685 121.359 26.9054 120.609C27.5236 119.879 27.9357 119.654 29.0222 119.467L29.884 119.317L29.041 119.298C27.5049 119.261 26.0437 120.459 26.0437 121.771C26.0437 122.295 26.0062 122.314 25.4068 122.22C24.826 122.127 24.7324 122.164 24.5825 122.614L24.4139 123.12L24.0205 122.464C23.5709 121.733 23.5147 121.209 23.7957 120.216C24.0767 119.204 24.7136 118.567 25.95 118.062C26.7181 117.743 26.9241 117.593 26.6057 117.593C25.7814 117.593 24.6387 118.268 23.8894 119.186C23.1963 120.01 23.1588 120.047 23.0089 119.654C22.5781 118.511 23.6084 116.638 25.107 115.832C26.4933 115.083 28.0668 114.971 30.1275 115.514C31.9071 115.982 33.3496 116.02 34.0802 115.645C35.8223 114.746 37.0587 112.011 39.0444 104.817C41.1425 97.2118 41.4984 94.4955 40.9552 90.7114C40.4868 87.3582 40.4119 85.7659 40.6554 83.8739C40.7866 82.8997 40.9552 81.9069 41.0488 81.6821C41.1238 81.4573 41.1238 81.2138 41.0488 81.1576C40.7678 80.989 40.2995 82.4689 40.056 84.2485C39.8499 85.897 39.9811 88.632 40.4119 91.2359L40.5243 91.9665L39.7001 91.5544C33.7617 88.5384 30.371 83.3119 29.5842 75.8936C29.3969 74.0578 29.3969 73.0649 29.6966 68.9811C29.9963 64.9722 30.0151 63.9044 29.8278 62.181C29.2845 57.2355 27.6922 53.8261 25.2756 52.496C24.4514 52.0464 24.0392 51.934 23.0464 51.934C21.9411 51.934 21.6976 52.009 20.4987 52.7208C19.4309 53.3765 19.0188 53.5264 18.2507 53.5264C17.2204 53.5264 16.2838 53.058 15.9091 52.3649C15.5719 51.7467 15.6281 50.2481 16.0215 49.6673C16.3212 49.2178 16.3587 49.199 16.6772 49.4987C17.3703 50.1169 19.5246 49.7985 20.2177 48.9555C20.8921 48.15 19.8056 47.0447 18.3819 47.0822C17.2954 47.1197 16.1152 47.588 16.1152 48.0001C16.1152 48.3186 16.1152 48.3186 14.4292 47.0073C14.1107 46.745 13.7735 46.2392 13.6424 45.7896C13.5113 45.3587 13.3427 44.9466 13.249 44.8904C13.1554 44.8342 13.043 44.4221 12.9868 43.9912C12.9118 43.4105 12.968 43.1295 13.2116 42.8485C13.6986 42.3053 16.1339 40.7879 17.9885 39.8512C19.1687 39.2518 19.8992 38.7273 20.8546 37.7531C22.8216 35.73 24.9946 34.9806 28.2542 35.2429L29.8278 35.3553L31.0829 34.5311C32.3754 33.6693 33.1622 33.2947 33.6493 33.2947C34.3986 33.2947 34.9793 36.3294 34.4361 37.5096C34.1925 38.0716 34.3799 38.3713 34.7171 37.9217C34.9231 37.622 35.0168 37.6595 35.8785 38.2402C37.1711 39.1207 39.2879 41.3311 40.5618 43.1295C41.9668 45.1152 43.2406 47.2882 45.3012 51.3158C46.2379 53.1517 47.3806 55.2123 47.8489 55.9242C49.4974 58.3782 51.5955 60.3826 53.5438 61.3755C54.4991 61.8625 55.0049 61.6939 54.1245 61.1694C53.525 60.8135 53.525 60.8135 53.6562 59.652C54.6677 50.6977 54.5928 45.7709 53.3002 38.3526C51.9702 30.747 49.385 23.4973 46.4439 19.1138C45.1514 17.203 43.2781 15.3484 41.8731 14.6179C40.5243 13.9247 38.7072 13.5313 37.7144 13.7187C37.0212 13.8685 37.0212 13.8685 38.3325 14.0933C40.3557 14.4493 42.0042 15.3484 43.6715 16.9969C50.228 23.4411 54.93 40.713 53.7686 54.0883C53.5812 56.2052 53.038 60.1016 52.9068 60.2515C52.8694 60.289 52.4198 59.9892 51.8953 59.5958C51.2958 59.1463 50.9961 58.7716 51.0523 58.5843C51.2958 57.76 51.7267 54.4068 51.914 51.8029C52.476 43.8414 50.7713 33.763 47.5867 26.2511C45.32 20.8934 42.7723 17.6151 39.7563 16.1914C37.808 15.2735 35.1479 15.2548 33.8366 16.1539L33.1622 16.6036V16.1727C33.1622 15.236 33.7992 13.906 34.6609 13.0443C35.9347 11.7704 37.1149 11.3583 39.2879 11.4332C40.8802 11.4894 41.1238 11.5456 42.6224 12.2949ZM66.1324 14.1121C66.5445 14.2807 66.8817 14.468 66.8817 14.5617C66.8817 14.6366 66.5445 14.8426 66.1324 15.03C64.0343 15.9666 62.5731 19.2262 62.5731 22.8791C62.5731 25.0521 62.929 27.45 63.9781 32.6203C66.5445 45.3962 67.3313 52.0464 66.9004 57.9286C66.7318 60.3639 66.2448 63.9794 66.0574 64.148C66.0012 64.2042 63.5472 63.867 63.0414 63.7358C62.8915 63.6984 62.9103 63.0427 63.0601 61.6565C63.6596 56.4112 63.5659 51.8591 62.7417 45.8458C62.161 41.5559 61.0557 36.2732 59.8193 31.796C58.227 25.9888 58.2645 26.1949 58.2645 23.9094C58.2645 21.343 58.4893 20.013 59.2199 18.1209C60.4937 14.8052 63.5097 13.063 66.1324 14.1121ZM73.3258 26.3822C73.8504 26.6257 73.9815 26.9254 73.5694 26.9254C73.0823 26.9254 71.8272 28.012 71.2465 28.9112C70.928 29.4169 70.4597 30.4098 70.2162 31.1404C69.5605 33.1261 69.6167 36.9663 70.3848 42.2865C71.2839 48.3373 71.4525 50.3979 71.4525 55.025C71.4525 59.3336 71.1153 62.3121 70.3286 64.9348L70.0663 65.8714L68.6613 65.2158C67.912 64.8598 67.1814 64.5788 67.0503 64.5788C66.8255 64.5788 66.8255 64.4664 67.2938 61.6752C67.4437 60.6824 67.5373 58.3969 67.5186 54.9313C67.5186 49.0679 67.2563 46.4453 66.02 39.6639C65.458 36.6292 65.3643 35.7487 65.458 34.5123C65.7764 30.0726 67.7621 26.9255 70.7219 26.1574C71.4151 25.9701 72.6514 26.0825 73.3258 26.3822ZM78.7771 38.8958L79.5265 39.233L78.7584 39.6264C77.2785 40.3758 76.3231 41.8744 75.7424 44.3472C75.5176 45.3775 75.4801 46.5577 75.5925 51.8404C75.7237 58.2658 75.63 60.1204 74.9931 63.3612C74.6933 64.9535 74.1876 66.7331 73.7192 67.8384L73.4382 68.5128L72.052 67.3701L70.6845 66.2273L71.0404 64.991C71.2277 64.2978 71.5649 62.6306 71.771 61.3006C72.2768 58.2283 72.2955 53.1142 71.8647 48.6183C71.5837 45.7896 71.5837 45.3775 71.8459 44.2722C72.8013 40.1322 76.0234 37.6407 78.7771 38.8958ZM82.6174 51.5594C83.3105 51.9153 83.3293 52.1401 82.6924 52.29C82.4301 52.3649 81.8681 52.777 81.4185 53.2079C80.2009 54.4443 79.7138 55.9616 79.2267 60.214C78.7584 64.429 77.8967 68.007 76.7915 70.3861C76.3606 71.3227 75.9485 72.072 75.8735 72.072C75.8173 72.072 75.63 71.791 75.4614 71.4539C75.3115 71.1354 74.862 70.461 74.4873 69.9552L73.8129 69.0748L74.1688 68.3629C75.1429 66.4521 76.0421 62.1623 76.1733 58.7716C76.2857 56.0366 76.6978 54.5754 77.7281 53.2079C78.9645 51.5968 81.2124 50.8288 82.6174 51.5594ZM84.0599 61.9L84.7155 62.1997L84.0786 62.5369C82.5987 63.305 81.8494 64.6163 80.9502 68.0819C79.9573 71.9409 79.1331 73.8517 77.803 75.4253L77.2598 76.0622L76.7353 74.4699L76.2107 72.8588L76.7915 71.866C77.5782 70.461 78.2526 68.5877 78.8146 66.2648C79.3579 63.9981 79.5639 63.5485 80.4069 62.7055C81.5122 61.5816 82.8235 61.3006 84.0599 61.9ZM65.8701 65.3469C71.6961 66.8081 76.0047 72.1095 76.3793 78.2539C76.7915 85.2601 72.1457 91.4045 65.2894 92.8844C63.491 93.2778 60.4937 93.1842 58.7703 92.7158C54.7239 91.5731 51.5206 88.9505 49.741 85.2976C48.823 83.4055 48.5046 82.038 48.3922 79.5465C48.3172 77.7482 48.3547 77.1112 48.6919 75.7999C50.6401 67.9695 58.1521 63.3987 65.8701 65.3469ZM96.2738 74.4886C97.4352 75.0881 98.1096 76.0622 99.9455 79.8275C100.901 81.7945 102.193 84.3047 102.793 85.3912L103.917 87.3769L103.392 88.3885C102.044 90.9737 101.35 93.5214 101.35 95.8817C101.35 97.8112 101.051 98.2234 98.4468 99.7969C94.0633 102.438 88.3497 106.953 86.8886 108.92C86.2329 109.819 86.1018 109.913 85.4274 109.913C84.9403 109.913 84.2097 110.175 83.1794 110.7L81.6433 111.505L79.2829 111.543C77.9716 111.543 76.6603 111.617 76.3606 111.692C76.0609 111.786 75.6487 111.842 75.4239 111.861C75.1991 111.88 74.9556 112.067 74.8432 112.292C74.7495 112.535 74.5997 112.723 74.5248 112.723C74.1876 112.723 73.8129 111.805 73.8129 110.981C73.8129 110.194 73.9066 109.969 74.4311 109.444C74.8245 109.051 75.3303 108.77 75.7986 108.695C76.96 108.47 77.241 108.189 76.1733 108.302C74.5809 108.489 73.4382 109.519 73.4382 110.774C73.4382 111.243 73.4008 111.262 72.8013 111.168C72.2206 111.074 72.1269 111.112 71.9771 111.561L71.8085 112.067L71.4151 111.411C70.9093 110.606 70.9093 109.875 71.3589 108.864C71.7897 107.927 72.5578 107.346 73.9628 106.915C74.8994 106.616 74.9556 106.578 74.4124 106.56C73.4944 106.541 72.1831 107.234 71.3214 108.246C70.8905 108.751 70.4597 109.163 70.366 109.163C70.0101 109.163 70.4035 107.271 70.928 106.428C72.1082 104.518 74.4686 103.899 77.6157 104.649C79.5827 105.117 80.6317 105.136 81.381 104.761C82.4114 104.218 84.5657 102.326 87.488 99.4223C90.5228 96.4063 91.9652 94.6079 92.4523 93.2404C93.239 90.9924 92.3961 87.0772 89.5112 79.5653L88.3872 76.6804L88.818 76.3244C91.066 74.5073 94.5878 73.6456 96.2738 74.4886ZM16.6772 76.568C20.5174 76.9239 24.1704 77.5796 28.1605 78.6473C29.2658 78.9471 29.603 79.1157 29.603 79.3779C29.603 80.5394 31.3639 84.5295 32.6939 86.4028C33.4994 87.5268 35.5788 89.6249 36.6278 90.3742C37.1149 90.7114 37.1524 90.8051 36.9088 91.0861C36.4592 91.6293 35.6537 91.9291 34.6609 91.9291C32.8812 91.9291 30.3523 90.7114 22.6155 86.0844C18.3631 83.5554 15.6094 82.5063 13.1741 82.4876C11.638 82.4876 11.6193 82.4876 11.6193 82.0006V81.5322L11.2259 82.0006C10.1955 83.2931 9.37129 84.9416 9.37129 85.7097C9.37129 86.3653 9.42749 86.4965 9.74595 86.4965C10.233 86.4965 10.2143 86.7213 9.70848 87.1896C8.13491 88.632 6.16794 86.9835 6.7112 84.6606C6.93599 83.6491 6.63626 83.6303 6.374 84.6419C6.01807 85.9345 6.46767 87.1896 7.47925 87.6954C7.77898 87.864 8.05997 88.145 8.11617 88.3698C8.19111 88.632 8.3597 88.7444 8.73436 88.7444H9.24016L8.84676 89.1753C8.62197 89.4188 8.13491 89.7186 7.77898 89.8497C7.17952 90.0558 7.01093 90.037 6.22414 89.6436C5.08142 89.0816 4.6131 88.1824 4.6131 86.5527C4.6131 85.9158 4.5569 85.4287 4.46323 85.4849C4.25717 85.616 4.27591 87.6767 4.5007 88.2574C4.7255 88.8756 5.98061 90.2431 6.29907 90.2431C6.44893 90.2431 6.56133 90.318 6.56133 90.4117C6.56133 90.5053 6.13047 90.6177 5.60595 90.6927C4.81916 90.8051 4.5569 90.7489 3.99491 90.4117C3.33925 89.9996 2.83346 89.1378 2.796 88.3323C2.77726 87.9202 2.77726 87.9202 2.6274 88.3698C2.4588 88.9318 2.32767 88.707 2.08414 87.3395C1.59708 84.7356 3.26432 81.195 6.05554 78.8534C8.67817 76.6616 11.3383 76.0997 16.6772 76.568ZM57.2716 93.334C58.021 93.5963 58.789 93.8024 58.9576 93.8024C59.2386 93.8024 59.2386 93.8398 59.0325 93.971C58.3394 94.4205 53.2066 94.4205 53.2066 93.971C53.2066 93.896 53.4126 93.3528 53.6562 92.772L54.1245 91.7417L55.0237 92.3037C55.5107 92.6034 56.541 93.0718 57.2716 93.334Z"/>
</mask>
<path d="M57.4402 3.05957C58.1896 3.4155 58.2645 3.6965 57.6088 3.6965C57.0281 3.6965 55.6044 4.9516 54.9675 6.03812C53.8248 7.98635 53.4314 10.2905 53.7686 12.9693C54.0496 15.2922 54.649 17.5589 56.2039 22.1485C59.5383 31.9834 61.3742 39.7201 62.3108 47.7191C62.8353 52.2338 62.7417 60.2702 62.1048 63.3799C62.0298 63.6984 61.805 63.792 60.3813 63.9794C59.4821 64.0918 58.7141 64.1667 58.6766 64.1105C58.6391 64.073 58.7515 62.8741 58.9389 61.4504C59.4821 57.4228 59.4447 49.5175 58.8639 45.7521C57.4215 36.498 55.0049 28.6302 51.3333 21.3055C49.5349 17.7275 48.6732 12.7633 49.2539 9.41006C49.5536 7.76155 50.5839 5.49487 51.4831 4.57695C53.2628 2.74111 55.5482 2.16039 57.4402 3.05957ZM92.8644 10.7963C93.5762 11.8641 93.595 12.501 92.9206 15.3484C92.4148 17.4653 92.3211 18.1584 92.4148 19.2074C92.6396 21.8675 93.9322 24.2092 96.4424 26.5695C98.4281 28.4054 100.47 29.7916 106.315 33.201C114.988 38.2777 117.105 39.7201 119.952 42.5863C123.493 46.183 125.141 49.3114 125.703 53.4889C126.359 58.3407 124.205 62.9116 120.083 65.4218C118.978 66.0962 118.922 66.1524 119.034 66.7144C119.671 69.8241 119.802 71.4351 119.784 76.287C119.784 80.8391 119.728 81.7008 119.259 84.8105C118.585 89.2502 118.416 93.8211 118.847 95.863C119.016 96.6685 119.521 98.0173 120.009 99.0101C121.133 101.277 121.095 101.52 119.109 104.424C116.768 107.89 112.553 114.203 111.841 115.327C111.504 115.87 111.073 116.75 110.904 117.294C110.567 118.286 110.08 118.717 109.237 118.717C108.956 118.717 108.413 119.073 107.795 119.654C105.903 121.452 102.98 122.295 99.9829 121.939C98.4843 121.752 96.9482 122.164 96.5735 122.82L96.3675 123.232L96.0115 122.839C95.8055 122.614 95.6369 122.07 95.5807 121.471C95.5245 120.666 95.5807 120.403 95.9366 119.954C96.4237 119.335 97.3416 118.905 98.1658 118.905C98.4656 118.905 98.7278 118.811 98.7278 118.717C98.7278 118.436 97.8099 118.511 96.8545 118.867C95.8991 119.242 95.1686 120.16 95.1686 120.984C95.1686 121.471 95.1123 121.527 94.5129 121.527C94.0071 121.527 93.801 121.621 93.7074 121.921C93.5575 122.295 93.5575 122.295 93.239 121.939C92.4335 121.059 92.7333 119.129 93.8572 118.062C94.1757 117.762 94.8876 117.406 95.5807 117.2C96.5923 116.919 96.6672 116.863 96.1052 116.863C95.1498 116.844 94.0633 117.406 93.1267 118.399C92.6771 118.867 92.2275 119.223 92.1151 119.148C91.8903 119.017 92.0963 117.724 92.4523 117.05C92.8831 116.188 94.1382 115.195 95.1873 114.896C96.4986 114.502 97.5102 114.521 99.8518 114.989C102.287 115.476 102.999 115.345 104.198 114.165C105.284 113.116 107.233 110.119 108.506 107.571C111.654 101.258 111.429 98.2421 107.308 91.7792C104.629 87.583 103.074 84.8292 100.751 80.2209C98.0722 74.9007 97.5664 74.1889 96.0303 73.758C94.8501 73.4396 92.8831 73.6082 91.6093 74.1514C88.893 75.3129 86.6263 76.9614 80.5006 82.2628C78.0466 84.3796 76.0047 86.1218 75.9672 86.1218C75.9297 86.1218 76.0983 85.616 76.3419 85.0166C77.1661 82.8997 77.4284 81.4573 77.4471 79.0969L77.4658 76.849L78.365 75.6501C79.6951 73.8517 80.5193 71.9596 81.3061 68.7938C81.6808 67.2389 82.1678 65.5904 82.3739 65.1221C82.8609 64.0168 83.9287 62.9303 84.6593 62.7805C85.9706 62.5182 84.5469 61.2069 82.9546 61.2069C81.8306 61.2069 81.0251 61.5254 80.0885 62.3496C79.3953 62.9678 79.3766 62.9678 79.489 62.5182C79.5452 62.2559 79.6576 61.2818 79.7325 60.3264L79.8637 58.603L82.0367 57.4041C83.2356 56.7297 84.8841 55.8118 85.7084 55.3622C89.174 53.414 92.2649 52.5522 95.6369 52.5522C99.8705 52.571 103.392 53.7886 109.518 57.4041C111.803 58.7529 113.639 59.5209 114.613 59.5209C116.206 59.5209 117.761 58.5655 118.454 57.1793C119.503 55.025 118.472 51.934 115.775 49.199C113.864 47.2695 111.86 45.8271 107.532 43.2794C96.4799 36.7416 95.2248 35.9173 92.2087 33.0324C89.2302 30.1663 87.3194 26.9817 86.6263 23.7596C86.2516 21.9425 86.2891 18.9077 86.7387 17.0531C87.1695 15.2548 88.2748 12.9319 89.2489 11.8079C89.942 11.0211 91.6655 10.0095 92.1713 10.1032C92.3211 10.1407 92.6209 10.4404 92.8644 10.7963ZM42.6224 12.2949C45.5822 13.7561 48.336 16.9595 50.6401 21.5865C54.9675 30.2599 57.74 40.3383 58.4705 50.0607C58.7703 53.9197 58.5267 58.9589 57.8711 63.2113L57.665 64.5414L56.4474 65.0472C52.5884 66.6957 49.3476 70.1987 48.0737 74.1327C47.3431 76.3619 47.1558 77.7107 47.2682 79.8088C47.4555 83.162 48.617 86.1218 50.7713 88.8194C51.4082 89.6062 51.9889 90.2431 52.0451 90.2431C52.1201 90.2618 52.4947 90.5428 52.8881 90.88L53.5812 91.4982L53.1316 92.5098C52.6258 93.615 52.195 95.8817 52.3823 96.4624C52.5884 97.1181 52.0639 98.6355 51.0148 100.396C47.4743 106.372 42.9034 115.439 42.4725 117.331C42.3039 118.024 42.0979 118.661 42.0042 118.755C41.9106 118.848 41.461 119.017 41.0114 119.111C40.4306 119.242 39.9061 119.579 39.1568 120.272C37.0774 122.258 35.7099 122.707 31.9446 122.632C30.5958 122.595 29.3969 122.632 29.2845 122.707C29.1534 122.782 28.7412 122.857 28.3666 122.876C27.8046 122.895 27.6547 122.988 27.4487 123.457L27.2239 124L26.8117 123.494C26.231 122.726 26.2685 121.359 26.9054 120.609C27.5236 119.879 27.9357 119.654 29.0222 119.467L29.884 119.317L29.041 119.298C27.5049 119.261 26.0437 120.459 26.0437 121.771C26.0437 122.295 26.0062 122.314 25.4068 122.22C24.826 122.127 24.7324 122.164 24.5825 122.614L24.4139 123.12L24.0205 122.464C23.5709 121.733 23.5147 121.209 23.7957 120.216C24.0767 119.204 24.7136 118.567 25.95 118.062C26.7181 117.743 26.9241 117.593 26.6057 117.593C25.7814 117.593 24.6387 118.268 23.8894 119.186C23.1963 120.01 23.1588 120.047 23.0089 119.654C22.5781 118.511 23.6084 116.638 25.107 115.832C26.4933 115.083 28.0668 114.971 30.1275 115.514C31.9071 115.982 33.3496 116.02 34.0802 115.645C35.8223 114.746 37.0587 112.011 39.0444 104.817C41.1425 97.2118 41.4984 94.4955 40.9552 90.7114C40.4868 87.3582 40.4119 85.7659 40.6554 83.8739C40.7866 82.8997 40.9552 81.9069 41.0488 81.6821C41.1238 81.4573 41.1238 81.2138 41.0488 81.1576C40.7678 80.989 40.2995 82.4689 40.056 84.2485C39.8499 85.897 39.9811 88.632 40.4119 91.2359L40.5243 91.9665L39.7001 91.5544C33.7617 88.5384 30.371 83.3119 29.5842 75.8936C29.3969 74.0578 29.3969 73.0649 29.6966 68.9811C29.9963 64.9722 30.0151 63.9044 29.8278 62.181C29.2845 57.2355 27.6922 53.8261 25.2756 52.496C24.4514 52.0464 24.0392 51.934 23.0464 51.934C21.9411 51.934 21.6976 52.009 20.4987 52.7208C19.4309 53.3765 19.0188 53.5264 18.2507 53.5264C17.2204 53.5264 16.2838 53.058 15.9091 52.3649C15.5719 51.7467 15.6281 50.2481 16.0215 49.6673C16.3212 49.2178 16.3587 49.199 16.6772 49.4987C17.3703 50.1169 19.5246 49.7985 20.2177 48.9555C20.8921 48.15 19.8056 47.0447 18.3819 47.0822C17.2954 47.1197 16.1152 47.588 16.1152 48.0001C16.1152 48.3186 16.1152 48.3186 14.4292 47.0073C14.1107 46.745 13.7735 46.2392 13.6424 45.7896C13.5113 45.3587 13.3427 44.9466 13.249 44.8904C13.1554 44.8342 13.043 44.4221 12.9868 43.9912C12.9118 43.4105 12.968 43.1295 13.2116 42.8485C13.6986 42.3053 16.1339 40.7879 17.9885 39.8512C19.1687 39.2518 19.8992 38.7273 20.8546 37.7531C22.8216 35.73 24.9946 34.9806 28.2542 35.2429L29.8278 35.3553L31.0829 34.5311C32.3754 33.6693 33.1622 33.2947 33.6493 33.2947C34.3986 33.2947 34.9793 36.3294 34.4361 37.5096C34.1925 38.0716 34.3799 38.3713 34.7171 37.9217C34.9231 37.622 35.0168 37.6595 35.8785 38.2402C37.1711 39.1207 39.2879 41.3311 40.5618 43.1295C41.9668 45.1152 43.2406 47.2882 45.3012 51.3158C46.2379 53.1517 47.3806 55.2123 47.8489 55.9242C49.4974 58.3782 51.5955 60.3826 53.5438 61.3755C54.4991 61.8625 55.0049 61.6939 54.1245 61.1694C53.525 60.8135 53.525 60.8135 53.6562 59.652C54.6677 50.6977 54.5928 45.7709 53.3002 38.3526C51.9702 30.747 49.385 23.4973 46.4439 19.1138C45.1514 17.203 43.2781 15.3484 41.8731 14.6179C40.5243 13.9247 38.7072 13.5313 37.7144 13.7187C37.0212 13.8685 37.0212 13.8685 38.3325 14.0933C40.3557 14.4493 42.0042 15.3484 43.6715 16.9969C50.228 23.4411 54.93 40.713 53.7686 54.0883C53.5812 56.2052 53.038 60.1016 52.9068 60.2515C52.8694 60.289 52.4198 59.9892 51.8953 59.5958C51.2958 59.1463 50.9961 58.7716 51.0523 58.5843C51.2958 57.76 51.7267 54.4068 51.914 51.8029C52.476 43.8414 50.7713 33.763 47.5867 26.2511C45.32 20.8934 42.7723 17.6151 39.7563 16.1914C37.808 15.2735 35.1479 15.2548 33.8366 16.1539L33.1622 16.6036V16.1727C33.1622 15.236 33.7992 13.906 34.6609 13.0443C35.9347 11.7704 37.1149 11.3583 39.2879 11.4332C40.8802 11.4894 41.1238 11.5456 42.6224 12.2949ZM66.1324 14.1121C66.5445 14.2807 66.8817 14.468 66.8817 14.5617C66.8817 14.6366 66.5445 14.8426 66.1324 15.03C64.0343 15.9666 62.5731 19.2262 62.5731 22.8791C62.5731 25.0521 62.929 27.45 63.9781 32.6203C66.5445 45.3962 67.3313 52.0464 66.9004 57.9286C66.7318 60.3639 66.2448 63.9794 66.0574 64.148C66.0012 64.2042 63.5472 63.867 63.0414 63.7358C62.8915 63.6984 62.9103 63.0427 63.0601 61.6565C63.6596 56.4112 63.5659 51.8591 62.7417 45.8458C62.161 41.5559 61.0557 36.2732 59.8193 31.796C58.227 25.9888 58.2645 26.1949 58.2645 23.9094C58.2645 21.343 58.4893 20.013 59.2199 18.1209C60.4937 14.8052 63.5097 13.063 66.1324 14.1121ZM73.3258 26.3822C73.8504 26.6257 73.9815 26.9254 73.5694 26.9254C73.0823 26.9254 71.8272 28.012 71.2465 28.9112C70.928 29.4169 70.4597 30.4098 70.2162 31.1404C69.5605 33.1261 69.6167 36.9663 70.3848 42.2865C71.2839 48.3373 71.4525 50.3979 71.4525 55.025C71.4525 59.3336 71.1153 62.3121 70.3286 64.9348L70.0663 65.8714L68.6613 65.2158C67.912 64.8598 67.1814 64.5788 67.0503 64.5788C66.8255 64.5788 66.8255 64.4664 67.2938 61.6752C67.4437 60.6824 67.5373 58.3969 67.5186 54.9313C67.5186 49.0679 67.2563 46.4453 66.02 39.6639C65.458 36.6292 65.3643 35.7487 65.458 34.5123C65.7764 30.0726 67.7621 26.9255 70.7219 26.1574C71.4151 25.9701 72.6514 26.0825 73.3258 26.3822ZM78.7771 38.8958L79.5265 39.233L78.7584 39.6264C77.2785 40.3758 76.3231 41.8744 75.7424 44.3472C75.5176 45.3775 75.4801 46.5577 75.5925 51.8404C75.7237 58.2658 75.63 60.1204 74.9931 63.3612C74.6933 64.9535 74.1876 66.7331 73.7192 67.8384L73.4382 68.5128L72.052 67.3701L70.6845 66.2273L71.0404 64.991C71.2277 64.2978 71.5649 62.6306 71.771 61.3006C72.2768 58.2283 72.2955 53.1142 71.8647 48.6183C71.5837 45.7896 71.5837 45.3775 71.8459 44.2722C72.8013 40.1322 76.0234 37.6407 78.7771 38.8958ZM82.6174 51.5594C83.3105 51.9153 83.3293 52.1401 82.6924 52.29C82.4301 52.3649 81.8681 52.777 81.4185 53.2079C80.2009 54.4443 79.7138 55.9616 79.2267 60.214C78.7584 64.429 77.8967 68.007 76.7915 70.3861C76.3606 71.3227 75.9485 72.072 75.8735 72.072C75.8173 72.072 75.63 71.791 75.4614 71.4539C75.3115 71.1354 74.862 70.461 74.4873 69.9552L73.8129 69.0748L74.1688 68.3629C75.1429 66.4521 76.0421 62.1623 76.1733 58.7716C76.2857 56.0366 76.6978 54.5754 77.7281 53.2079C78.9645 51.5968 81.2124 50.8288 82.6174 51.5594ZM84.0599 61.9L84.7155 62.1997L84.0786 62.5369C82.5987 63.305 81.8494 64.6163 80.9502 68.0819C79.9573 71.9409 79.1331 73.8517 77.803 75.4253L77.2598 76.0622L76.7353 74.4699L76.2107 72.8588L76.7915 71.866C77.5782 70.461 78.2526 68.5877 78.8146 66.2648C79.3579 63.9981 79.5639 63.5485 80.4069 62.7055C81.5122 61.5816 82.8235 61.3006 84.0599 61.9ZM65.8701 65.3469C71.6961 66.8081 76.0047 72.1095 76.3793 78.2539C76.7915 85.2601 72.1457 91.4045 65.2894 92.8844C63.491 93.2778 60.4937 93.1842 58.7703 92.7158C54.7239 91.5731 51.5206 88.9505 49.741 85.2976C48.823 83.4055 48.5046 82.038 48.3922 79.5465C48.3172 77.7482 48.3547 77.1112 48.6919 75.7999C50.6401 67.9695 58.1521 63.3987 65.8701 65.3469ZM96.2738 74.4886C97.4352 75.0881 98.1096 76.0622 99.9455 79.8275C100.901 81.7945 102.193 84.3047 102.793 85.3912L103.917 87.3769L103.392 88.3885C102.044 90.9737 101.35 93.5214 101.35 95.8817C101.35 97.8112 101.051 98.2234 98.4468 99.7969C94.0633 102.438 88.3497 106.953 86.8886 108.92C86.2329 109.819 86.1018 109.913 85.4274 109.913C84.9403 109.913 84.2097 110.175 83.1794 110.7L81.6433 111.505L79.2829 111.543C77.9716 111.543 76.6603 111.617 76.3606 111.692C76.0609 111.786 75.6487 111.842 75.4239 111.861C75.1991 111.88 74.9556 112.067 74.8432 112.292C74.7495 112.535 74.5997 112.723 74.5248 112.723C74.1876 112.723 73.8129 111.805 73.8129 110.981C73.8129 110.194 73.9066 109.969 74.4311 109.444C74.8245 109.051 75.3303 108.77 75.7986 108.695C76.96 108.47 77.241 108.189 76.1733 108.302C74.5809 108.489 73.4382 109.519 73.4382 110.774C73.4382 111.243 73.4008 111.262 72.8013 111.168C72.2206 111.074 72.1269 111.112 71.9771 111.561L71.8085 112.067L71.4151 111.411C70.9093 110.606 70.9093 109.875 71.3589 108.864C71.7897 107.927 72.5578 107.346 73.9628 106.915C74.8994 106.616 74.9556 106.578 74.4124 106.56C73.4944 106.541 72.1831 107.234 71.3214 108.246C70.8905 108.751 70.4597 109.163 70.366 109.163C70.0101 109.163 70.4035 107.271 70.928 106.428C72.1082 104.518 74.4686 103.899 77.6157 104.649C79.5827 105.117 80.6317 105.136 81.381 104.761C82.4114 104.218 84.5657 102.326 87.488 99.4223C90.5228 96.4063 91.9652 94.6079 92.4523 93.2404C93.239 90.9924 92.3961 87.0772 89.5112 79.5653L88.3872 76.6804L88.818 76.3244C91.066 74.5073 94.5878 73.6456 96.2738 74.4886ZM16.6772 76.568C20.5174 76.9239 24.1704 77.5796 28.1605 78.6473C29.2658 78.9471 29.603 79.1157 29.603 79.3779C29.603 80.5394 31.3639 84.5295 32.6939 86.4028C33.4994 87.5268 35.5788 89.6249 36.6278 90.3742C37.1149 90.7114 37.1524 90.8051 36.9088 91.0861C36.4592 91.6293 35.6537 91.9291 34.6609 91.9291C32.8812 91.9291 30.3523 90.7114 22.6155 86.0844C18.3631 83.5554 15.6094 82.5063 13.1741 82.4876C11.638 82.4876 11.6193 82.4876 11.6193 82.0006V81.5322L11.2259 82.0006C10.1955 83.2931 9.37129 84.9416 9.37129 85.7097C9.37129 86.3653 9.42749 86.4965 9.74595 86.4965C10.233 86.4965 10.2143 86.7213 9.70848 87.1896C8.13491 88.632 6.16794 86.9835 6.7112 84.6606C6.93599 83.6491 6.63626 83.6303 6.374 84.6419C6.01807 85.9345 6.46767 87.1896 7.47925 87.6954C7.77898 87.864 8.05997 88.145 8.11617 88.3698C8.19111 88.632 8.3597 88.7444 8.73436 88.7444H9.24016L8.84676 89.1753C8.62197 89.4188 8.13491 89.7186 7.77898 89.8497C7.17952 90.0558 7.01093 90.037 6.22414 89.6436C5.08142 89.0816 4.6131 88.1824 4.6131 86.5527C4.6131 85.9158 4.5569 85.4287 4.46323 85.4849C4.25717 85.616 4.27591 87.6767 4.5007 88.2574C4.7255 88.8756 5.98061 90.2431 6.29907 90.2431C6.44893 90.2431 6.56133 90.318 6.56133 90.4117C6.56133 90.5053 6.13047 90.6177 5.60595 90.6927C4.81916 90.8051 4.5569 90.7489 3.99491 90.4117C3.33925 89.9996 2.83346 89.1378 2.796 88.3323C2.77726 87.9202 2.77726 87.9202 2.6274 88.3698C2.4588 88.9318 2.32767 88.707 2.08414 87.3395C1.59708 84.7356 3.26432 81.195 6.05554 78.8534C8.67817 76.6616 11.3383 76.0997 16.6772 76.568ZM57.2716 93.334C58.021 93.5963 58.789 93.8024 58.9576 93.8024C59.2386 93.8024 59.2386 93.8398 59.0325 93.971C58.3394 94.4205 53.2066 94.4205 53.2066 93.971C53.2066 93.896 53.4126 93.3528 53.6562 92.772L54.1245 91.7417L55.0237 92.3037C55.5107 92.6034 56.541 93.0718 57.2716 93.334Z" stroke="#060213" stroke-width="4.4177" mask="url(#path-1-inside-1_5039_108)"/>
</svg>
