<svg width="512" height="512" viewBox="0 0 512 512" fill="none" xmlns="http://www.w3.org/2000/svg">
<rect width="512" height="512" rx="141.094" fill="white"/>
<path d="M250.702 90.7726C240.981 97.6068 230.494 108.094 223.483 117.815C219.948 122.822 215.235 131.66 214.292 135.312L213.703 137.492L218.004 140.733C231.024 150.336 240.451 162.59 247.344 178.733C250.113 185.214 253.235 195.465 253.942 200.178C254.178 201.651 254.59 203.006 254.826 203.183C255.062 203.301 255.651 201.238 256.24 198.587C260.717 177.142 269.201 161.235 283.459 147.508C286.345 144.739 290.352 141.322 292.355 139.967C296.479 137.198 296.42 137.433 293.474 130.894C288.29 119.288 276.742 104.971 264.841 95.3091C260.717 92.0098 255.179 88.0036 254.708 88.0036C254.59 88.0625 252.823 89.2408 250.702 90.7726Z" fill="#2E2E2F"/>
<path d="M104 137.466C104 137.878 104.471 138.939 105.119 139.763C108.301 144.359 113.014 155.317 115.724 164.685C119.141 176.703 120.673 186.483 121.733 203.804C122.44 215.764 122.382 217.531 120.496 253.588C119.613 269.966 119.789 292.236 120.85 301.309C124.856 335.892 139.29 363.818 164.388 385.499C184.773 403.055 210.224 414.603 238.621 418.962C247.694 420.376 266.134 420.376 273.322 418.903C282.866 417.018 294.296 411.952 298.243 407.827C300.187 405.824 299.716 405.353 295.533 404.705C291.173 404.057 282.395 400.64 277.152 397.576C270.671 393.747 261.421 384.674 256.944 377.84C250.227 367.471 246.692 356.984 244.454 341.077C243.629 335.185 243.452 328.056 243.334 298.069C243.158 260.127 242.863 254.707 240.094 241.392C237.148 227.37 230.903 212.052 223.303 200.269C209.105 178.235 193.021 163.86 169.749 152.312C150.896 142.945 132.456 138.055 112.425 137.112C105.885 136.818 104 136.936 104 137.466Z" fill="#2E2E2F"/>
<path d="M387.978 137.554C365.708 139.852 342.26 148.041 324.35 159.765C313.568 166.776 302.021 177.557 294.48 187.573C277.394 210.255 267.85 238.829 264.728 277.006C263.726 289.025 263.726 325.788 264.728 333.565C265.611 340.34 268.675 352.241 271.032 357.897C282.402 385.233 308.855 398.312 335.779 389.829C356.871 383.23 374.546 364.024 382.794 338.69C387.271 324.845 389.098 312.061 389.569 290.969C389.864 276.712 389.215 254.854 387.86 237.945C386.8 223.982 386.977 194.407 388.155 185.805C390.806 166.776 395.578 153.049 403.532 141.501C404.946 139.38 406.006 137.436 405.83 137.259C405.299 136.788 393.929 136.965 387.978 137.554Z" fill="#2E2E2F"/>
</svg>
