<svg width="512" height="512" viewBox="0 0 512 512" fill="none" xmlns="http://www.w3.org/2000/svg">
<path d="M250.726 32.7903C237.425 42.1412 223.076 56.4901 213.483 69.7909C208.646 76.6429 202.197 88.7346 200.908 93.7325L200.102 96.7152L205.986 101.149C223.801 114.288 236.699 131.056 246.131 153.143C249.919 162.01 254.192 176.037 255.159 182.486C255.482 184.501 256.046 186.355 256.368 186.597C256.691 186.758 257.497 183.937 258.303 180.309C264.43 150.967 276.038 129.202 295.546 110.419C299.495 106.63 304.977 101.955 307.718 100.101C313.361 96.3121 313.28 96.6346 309.249 87.6867C302.156 71.8062 286.356 52.2176 270.072 38.9974C264.43 34.4831 256.852 29.0015 256.207 29.0015C256.046 29.0822 253.628 30.6944 250.726 32.7903Z" fill="#080214"/>
<path d="M50 96.6336C50 97.1979 50.6449 98.6489 51.5316 99.7775C55.8846 106.065 62.3336 121.059 66.0417 133.876C70.7171 150.321 72.813 163.702 74.264 187.402C75.2314 203.766 75.1508 206.185 72.5712 255.519C71.362 277.929 71.6039 308.4 73.0549 320.814C78.5365 368.133 98.2863 406.343 132.627 436.008C160.518 460.03 195.342 475.83 234.197 481.795C246.611 483.73 271.843 483.73 281.677 481.715C294.736 479.135 310.375 472.202 315.776 466.56C318.436 463.819 317.791 463.174 312.068 462.287C306.103 461.401 294.091 456.725 286.917 452.533C278.05 447.294 265.394 434.879 259.267 425.528C250.078 411.341 245.241 396.992 242.178 375.227C241.049 367.166 240.807 357.412 240.646 316.38C240.404 264.467 240.001 257.05 236.212 238.832C232.182 219.647 223.637 198.688 213.238 182.565C193.811 152.417 171.804 132.748 139.962 116.948C114.167 104.131 88.9353 97.4397 61.5274 96.15C52.5796 95.7469 50 95.9081 50 96.6336Z" fill="#080214"/>
<path d="M438.548 96.783C408.077 99.9268 375.993 111.132 351.487 127.174C336.736 136.766 320.936 151.518 310.617 165.222C287.24 196.258 274.181 235.354 269.909 287.59C268.538 304.035 268.538 354.337 269.909 364.977C271.118 374.248 275.31 390.531 278.534 398.27C294.092 435.674 330.287 453.569 367.126 441.961C395.985 432.933 420.168 406.653 431.454 371.991C437.581 353.047 440.079 335.554 440.724 306.695C441.127 287.187 440.241 257.28 438.387 234.145C436.936 215.04 437.177 174.573 438.79 162.804C442.417 136.766 448.947 117.984 459.829 102.184C461.764 99.282 463.215 96.6218 462.973 96.38C462.248 95.7351 446.69 95.9769 438.548 96.783Z" fill="#080214"/>
</svg>
