<svg width="215" height="235" viewBox="0 0 215 235" fill="none" xmlns="http://www.w3.org/2000/svg">
<path d="M104.492 1.95996C97.568 6.79721 90.0984 14.2199 85.1047 21.1005C82.5868 24.645 79.2297 30.9001 78.5583 33.4855L78.1387 35.0284L81.202 37.3219C90.4761 44.1191 97.1903 52.7928 102.1 64.2187C104.072 68.8058 106.296 76.0617 106.8 79.3977C106.968 80.4402 107.262 81.3993 107.429 81.5244C107.597 81.6078 108.017 80.1483 108.437 78.2718C111.626 63.0928 117.669 51.8337 127.824 42.1175C129.88 40.1576 132.734 37.7389 134.16 36.7798C137.098 34.8199 137.056 34.9867 134.958 30.358C131.265 22.143 123.04 12.0098 114.563 5.17089C111.626 2.83566 107.681 3.14147e-05 107.346 3.14147e-05C107.262 0.0417319 106.003 0.875745 104.492 1.95996Z" fill="black"/>
<path d="M0 35.0097C0 35.3016 0.335711 36.0522 0.797314 36.636C3.06337 39.8886 6.42048 47.6449 8.35082 54.2753C10.7847 62.7822 11.8758 69.7045 12.6311 81.9644C13.1347 90.4296 13.0927 91.6806 11.7499 117.201C11.1204 128.794 11.2463 144.557 12.0017 150.979C14.8552 175.457 25.1364 195.223 43.013 210.569C57.5325 222.995 75.6609 231.169 95.8875 234.255C102.35 235.255 115.485 235.255 120.604 234.213C127.402 232.878 135.543 229.292 138.355 226.373C139.74 224.955 139.404 224.622 136.425 224.163C133.319 223.704 127.067 221.286 123.332 219.117C118.716 216.407 112.128 209.985 108.938 205.148C104.154 197.808 101.637 190.386 100.042 179.127C99.4545 174.956 99.3286 169.911 99.2446 148.685C99.1188 121.83 98.9089 117.994 96.9366 108.569C94.8384 98.6446 90.3903 87.8025 84.9769 79.4624C74.8636 63.8664 63.4075 53.6915 46.8317 45.5182C33.4033 38.8878 20.2686 35.4267 6.00084 34.7595C1.34284 34.551 0 34.6344 0 35.0097Z" fill="black"/>
<path d="M202.271 35.0721C186.408 36.6984 169.707 42.4948 156.95 50.7932C149.27 55.7555 141.045 63.3867 135.674 70.4758C123.505 86.5305 116.706 106.755 114.482 133.777C113.769 142.284 113.769 168.305 114.482 173.81C115.112 178.605 117.294 187.029 118.972 191.032C127.071 210.381 145.913 219.638 165.091 213.633C180.114 208.963 192.703 195.369 198.578 177.437C201.767 167.638 203.068 158.589 203.404 143.66C203.614 133.569 203.152 118.098 202.187 106.13C201.432 96.2467 201.557 75.3131 202.397 69.2248C204.285 55.7555 207.684 46.0393 213.349 37.866C214.356 36.3648 215.112 34.9887 214.986 34.8636C214.608 34.53 206.509 34.6551 202.271 35.0721Z" fill="black"/>
</svg>
